<svg width="92" height="92" viewBox="0 0 92 92" fill="none" xmlns="http://www.w3.org/2000/svg">
<path fill-rule="evenodd" clip-rule="evenodd" d="M91.0001 46C91.0001 70.8528 70.8529 91 46.0001 91C21.1473 91 1.00012 70.8528 1.00012 46C1.00012 21.1472 21.1473 1 46.0001 1C70.8529 1 91.0001 21.1472 91.0001 46ZM92.0001 46C92.0001 71.4051 71.4052 92 46.0001 92C20.595 92 0.00012207 71.4051 0.00012207 46C0.00012207 20.5949 20.595 0 46.0001 0C71.4052 0 92.0001 20.5949 92.0001 46ZM76.8248 25.1645C75.432 23.7786 73.543 23 71.5733 23H20.427C18.4573 23 16.5682 23.7786 15.1754 25.1645C13.7826 26.5505 13.0001 28.4302 13.0001 30.3902V61.6098C13.0001 62.5803 13.1922 63.5413 13.5655 64.4379C13.9387 65.3345 14.4858 66.1492 15.1754 66.8355C15.865 67.5217 16.6838 68.0661 17.5848 68.4375C18.4859 68.8089 19.4517 69 20.427 69H71.5733C73.543 69 75.432 68.2214 76.8248 66.8355C78.2177 65.4495 79.0001 63.5698 79.0001 61.6098V30.3902C79.0001 28.4302 78.2177 26.5505 76.8248 25.1645ZM18.6765 28.6483C19.1407 28.1863 19.7704 27.9268 20.427 27.9268H71.5733C72.2298 27.9268 72.8595 28.1863 73.3238 28.6483C73.7881 29.1103 74.0489 29.7369 74.0489 30.3902V61.6098C74.0489 62.2631 73.7881 62.8897 73.3238 63.3517C72.8595 63.8137 72.2298 64.0732 71.5733 64.0732H20.427C19.0604 64.0732 17.9514 62.9696 17.9514 61.6098V30.3902C17.9514 29.7369 18.2122 29.1103 18.6765 28.6483ZM63.3377 54.2031H28.679L28.3424 54.2261C27.721 54.3112 27.1552 54.6278 26.7594 55.112C26.3636 55.5961 26.1672 56.2118 26.2099 56.8345C26.2527 57.4571 26.5314 58.0405 26.9897 58.4666C27.448 58.8927 28.0518 59.1298 28.679 59.13H63.3377L63.6744 59.107C64.2958 59.0219 64.8615 58.7053 65.2574 58.2211C65.6532 57.737 65.8496 57.1213 65.8068 56.4986C65.7641 55.876 65.4854 55.2926 65.027 54.8665C64.5687 54.4404 63.9649 54.2033 63.3377 54.2031ZM63.1961 43.6693C62.5771 43.0533 61.7375 42.7072 60.8621 42.7072C59.9867 42.7072 59.1471 43.0533 58.528 43.6693C57.909 44.2852 57.5613 45.1207 57.5613 45.9918C57.5613 46.8629 57.909 47.6983 58.528 48.3143C59.1471 48.9303 59.9867 49.2763 60.8621 49.2763C61.7375 49.2763 62.5771 48.9303 63.1961 48.3143C63.8152 47.6983 64.1629 46.8629 64.1629 45.9918C64.1629 45.1207 63.8152 44.2852 63.1961 43.6693ZM43.4077 43.6693C42.7887 43.0533 41.9491 42.7072 41.0736 42.7072C40.1982 42.7072 39.3586 43.0533 38.7396 43.6693C38.1206 44.2852 37.7728 45.1207 37.7728 45.9918C37.7728 46.8629 38.1206 47.6983 38.7396 48.3143C39.3586 48.9303 40.1982 49.2763 41.0736 49.2763C41.9491 49.2763 42.7887 48.9303 43.4077 48.3143C44.0267 47.6983 44.3745 46.8629 44.3745 45.9918C44.3745 45.1207 44.0267 44.2852 43.4077 43.6693ZM33.5052 43.6693C32.8862 43.0533 32.0466 42.7072 31.1712 42.7072C30.2957 42.7072 29.4562 43.0533 28.8371 43.6693C28.2181 44.2852 27.8703 45.1207 27.8703 45.9918C27.8703 46.8629 28.2181 47.6983 28.8371 48.3143C29.4562 48.9303 30.2957 49.2763 31.1712 49.2763C32.0466 49.2763 32.8862 48.9303 33.5052 48.3143C34.1242 47.6983 34.472 46.8629 34.472 45.9918C34.472 45.1207 34.1242 44.2852 33.5052 43.6693ZM53.3102 43.6693C52.6911 43.0533 51.8515 42.7072 50.9761 42.7072C50.1007 42.7072 49.2611 43.0533 48.6421 43.6693C48.0231 44.2852 47.6753 45.1207 47.6753 45.9918C47.6753 46.8629 48.0231 47.6983 48.6421 48.3143C49.2611 48.9303 50.1007 49.2763 50.9761 49.2763C51.8515 49.2763 52.6911 48.9303 53.3102 48.3143C53.9292 47.6983 54.2769 46.8629 54.2769 45.9918C54.2769 45.1207 53.9292 44.2852 53.3102 43.6693ZM28.5375 33.8156C27.9184 33.1997 27.0789 32.8536 26.2034 32.8536C25.328 32.8536 24.4884 33.1997 23.8694 33.8156C23.2504 34.4316 22.9026 35.2671 22.9026 36.1382C22.9026 37.0093 23.2504 37.8447 23.8694 38.4607C24.4884 39.0767 25.328 39.4227 26.2034 39.4227C27.0789 39.4227 27.9184 39.0767 28.5375 38.4607C29.1565 37.8447 29.5042 37.0093 29.5042 36.1382C29.5042 35.2671 29.1565 34.4316 28.5375 33.8156ZM38.4234 33.8156C37.8044 33.1997 36.9648 32.8536 36.0894 32.8536C35.214 32.8536 34.3744 33.1997 33.7554 33.8156C33.1363 34.4316 32.7886 35.2671 32.7886 36.1382C32.7886 37.0093 33.1363 37.8447 33.7554 38.4607C34.3744 39.0767 35.214 39.4227 36.0894 39.4227C36.9648 39.4227 37.8044 39.0767 38.4234 38.4607C39.0425 37.8447 39.3902 37.0093 39.3902 36.1382C39.3902 35.2671 39.0425 34.4316 38.4234 33.8156ZM48.3259 33.8156C47.7069 33.1997 46.8673 32.8536 45.9919 32.8536C45.1164 32.8536 44.2769 33.1997 43.6578 33.8156C43.0388 34.4316 42.691 35.2671 42.691 36.1382C42.691 37.0093 43.0388 37.8447 43.6578 38.4607C44.2769 39.0767 45.1164 39.4227 45.9919 39.4227C46.8673 39.4227 47.7069 39.0767 48.3259 38.4607C48.9449 37.8447 49.2927 37.0093 49.2927 36.1382C49.2927 35.2671 48.9449 34.4316 48.3259 33.8156ZM58.2284 33.8156C57.6094 33.1997 56.7698 32.8536 55.8943 32.8536C55.0189 32.8536 54.1793 33.1997 53.5603 33.8156C52.9413 34.4316 52.5935 35.2671 52.5935 36.1382C52.5935 37.0093 52.9413 37.8447 53.5603 38.4607C54.1793 39.0767 55.0189 39.4227 55.8943 39.4227C56.7698 39.4227 57.6094 39.0767 58.2284 38.4607C58.8474 37.8447 59.1952 37.0093 59.1952 36.1382C59.1952 35.2671 58.8474 34.4316 58.2284 33.8156ZM68.1309 33.8156C67.5118 33.1997 66.6723 32.8536 65.7968 32.8536C64.9214 32.8536 64.0818 33.1997 63.4628 33.8156C62.8438 34.4316 62.496 35.2671 62.496 36.1382C62.496 37.0093 62.8438 37.8447 63.4628 38.4607C64.0818 39.0767 64.9214 39.4227 65.7968 39.4227C66.6723 39.4227 67.5118 39.0767 68.1309 38.4607C68.7499 37.8447 69.0976 37.0093 69.0976 36.1382C69.0976 35.2671 68.7499 34.4316 68.1309 33.8156Z" fill="#EC7979"/>
</svg>
