<svg width="88" height="32" viewBox="0 0 88 32" fill="none" xmlns="http://www.w3.org/2000/svg">
<path fill-rule="evenodd" clip-rule="evenodd" d="M16.1137 0.456055H10.6011L0.28479 31.1461H5.87609L8.43549 23.4952H18.2006L20.7993 31.1461H26.3906L16.1137 0.456055ZM13.3574 6.63729L17.2162 19.3023H9.34112L13.3574 6.63729ZM39.3008 11.7811L32.3708 0.456055H26.4251L36.1114 16.0172L26.7401 31.1461H32.6858L39.3008 20.2533L45.8765 31.1461H51.7828L42.4115 16.0172L52.0978 0.456055H46.1915L39.3008 11.7811ZM54.9125 0.456055V31.1461H60.3463V0.456055H54.9125ZM78.1492 5.68633H87.0874V0.456055H63.8166V5.68633H72.7548V31.1461H78.1492V5.68633Z" fill="#EC7979"/>
</svg>
