<svg width="54" height="54" viewBox="0 0 54 54" fill="none" xmlns="http://www.w3.org/2000/svg">
<path d="M53.0955 16.2229C53.0661 14.0139 52.6525 11.8268 51.8734 9.75958C51.1978 8.01586 50.1658 6.43224 48.8435 5.10992C47.5212 3.7876 45.9376 2.75564 44.1938 2.08C42.1531 1.31395 39.9973 0.899742 37.818 0.854997C35.0122 0.72958 34.1226 0.69458 27.0001 0.69458C19.8776 0.69458 18.9647 0.69458 16.1792 0.854997C14.001 0.900071 11.8461 1.31428 9.80633 2.08C8.06234 2.75517 6.47848 3.78696 5.1561 5.10934C3.83371 6.43173 2.80193 8.01558 2.12675 9.75958C1.35917 11.7987 0.945859 13.9541 0.904666 16.1325C0.77925 18.9412 0.741333 19.8308 0.741333 26.9533C0.741333 34.0758 0.741333 34.9858 0.904666 37.7742C0.948416 39.9558 1.35967 42.1083 2.12675 44.1529C2.80306 45.8964 3.83561 47.4796 5.15844 48.8014C6.48126 50.1232 8.06527 51.1546 9.80925 51.8296C11.8434 52.6264 13.9987 53.0703 16.1822 53.1421C18.9909 53.2675 19.8805 53.3054 27.003 53.3054C34.1255 53.3054 35.0384 53.3054 37.8238 53.1421C40.003 53.0992 42.159 52.6859 44.1997 51.92C45.9429 51.2436 47.5261 50.2113 48.8484 48.8891C50.1706 47.5669 51.2028 45.9837 51.8792 44.2404C52.6463 42.1987 53.0576 40.0462 53.1013 37.8617C53.2267 35.0558 53.2647 34.1662 53.2647 27.0408C53.2588 19.9183 53.2588 19.0142 53.0955 16.2229ZM26.9826 40.4225C19.5334 40.4225 13.4988 34.3879 13.4988 26.9387C13.4988 19.4896 19.5334 13.455 26.9826 13.455C30.5587 13.455 33.9883 14.8756 36.517 17.4043C39.0457 19.933 40.4663 23.3626 40.4663 26.9387C40.4663 30.5149 39.0457 33.9445 36.517 36.4732C33.9883 39.0019 30.5587 40.4225 26.9826 40.4225ZM41.003 16.1004C40.59 16.1008 40.181 16.0197 39.7993 15.8619C39.4177 15.704 39.0709 15.4724 38.7789 15.1804C38.4868 14.8883 38.2553 14.5416 38.0974 14.1599C37.9395 13.7783 37.8584 13.3693 37.8588 12.9562C37.8588 12.5435 37.9401 12.1349 38.0981 11.7536C38.256 11.3723 38.4875 11.0258 38.7793 10.734C39.0711 10.4422 39.4176 10.2107 39.7989 10.0528C40.1802 9.89483 40.5888 9.81354 41.0015 9.81354C41.4142 9.81354 41.8229 9.89483 42.2042 10.0528C42.5855 10.2107 42.9319 10.4422 43.2238 10.734C43.5156 11.0258 43.7471 11.3723 43.905 11.7536C44.063 12.1349 44.1442 12.5435 44.1442 12.9562C44.1442 14.6946 42.7384 16.1004 41.003 16.1004Z" fill="#CCCCCC"/>
<path d="M26.9829 35.6975C31.8202 35.6975 35.7416 31.7761 35.7416 26.9387C35.7416 22.1014 31.8202 18.18 26.9829 18.18C22.1455 18.18 18.2241 22.1014 18.2241 26.9387C18.2241 31.7761 22.1455 35.6975 26.9829 35.6975Z" fill="#CCCCCC"/>
</svg>
