<svg width="60" height="58" viewBox="0 0 60 58" fill="none" xmlns="http://www.w3.org/2000/svg">
<path fill-rule="evenodd" clip-rule="evenodd" d="M30.0753 0.833252C14.0074 0.833252 0.984497 13.8562 0.984497 29.9241C0.984497 42.7749 9.31742 53.6803 20.8791 57.5303C22.3345 57.7928 22.8595 56.8974 22.8595 56.1274C22.8595 55.4362 22.8362 53.6045 22.8274 51.1808C14.7337 52.9366 13.0245 47.2783 13.0245 47.2783C11.7062 43.9183 9.79575 43.0228 9.79575 43.0228C7.15616 41.2174 9.997 41.2583 9.997 41.2583C12.9195 41.4624 14.4507 44.2566 14.4507 44.2566C17.0466 48.7016 21.2641 47.4183 22.9149 46.6745C23.1803 44.7933 23.9387 43.5099 24.767 42.7837C18.3095 42.0516 11.5195 39.5549 11.5195 28.4045C11.5195 25.2341 12.6541 22.6324 14.5062 20.6024C14.2116 19.8645 13.2053 16.9041 14.7949 12.9024C14.7949 12.9024 17.2362 12.1178 22.7924 15.8803C25.1654 15.2348 27.6132 14.9053 30.0724 14.9003C32.5317 14.9043 34.9796 15.2339 37.3524 15.8803C42.9116 12.1149 45.3499 12.9024 45.3499 12.9024C46.9395 16.9041 45.942 19.8645 45.6387 20.6024C47.5053 22.6324 48.6253 25.2312 48.6253 28.4045C48.6253 39.5841 41.8295 42.0399 35.3487 42.7603C36.3841 43.6587 37.3174 45.432 37.3174 48.1445C37.3174 52.0353 37.2824 55.1737 37.2824 56.1274C37.2824 56.9062 37.8016 57.8103 39.2862 57.5245C50.842 53.6687 59.1662 42.772 59.1662 29.9241C59.1662 13.8562 46.1432 0.833252 30.0753 0.833252Z" fill="#CCCCCC"/>
</svg>
