<svg width="60" height="60" viewBox="0 0 60 60" fill="none" xmlns="http://www.w3.org/2000/svg">
<path d="M21.3667 57.8249C24.1667 58.6708 26.9959 59.1666 30 59.1666C37.7355 59.1666 45.1542 56.0937 50.624 50.6239C56.0938 45.1541 59.1667 37.7354 59.1667 29.9999C59.1667 26.1697 58.4123 22.377 56.9465 18.8383C55.4808 15.2997 53.3324 12.0843 50.624 9.37597C47.9156 6.6676 44.7003 4.51919 41.1616 3.05343C37.623 1.58767 33.8303 0.833252 30 0.833252C26.1698 0.833252 22.3771 1.58767 18.8384 3.05343C15.2998 4.51919 12.0845 6.6676 9.37609 9.37597C3.90628 14.8458 0.833374 22.2644 0.833374 29.9999C0.833374 42.3958 8.62087 53.0416 19.6167 57.2416C19.3542 54.9666 19.0917 51.2041 19.6167 48.6083L22.9709 34.1999C22.9709 34.1999 22.125 32.5083 22.125 29.8249C22.125 25.7999 24.6334 22.7958 27.4917 22.7958C30 22.7958 31.1667 24.6333 31.1667 26.9958C31.1667 29.5041 29.5042 33.0916 28.6584 36.5333C28.1625 39.3916 30.175 41.8999 33.0917 41.8999C38.2834 41.8999 42.3084 36.3583 42.3084 28.5416C42.3084 21.5416 37.2917 16.7583 30.0875 16.7583C21.8625 16.7583 17.0209 22.8833 17.0209 29.3291C17.0209 31.8374 17.8375 34.3749 19.1792 36.0374C19.4417 36.2124 19.4417 36.4458 19.3542 36.8833L18.5084 40.0624C18.5084 40.5583 18.1875 40.7333 17.6917 40.3833C13.9584 38.7499 11.8 33.4416 11.8 29.1541C11.8 19.9374 18.3334 11.5666 30.9334 11.5666C40.9667 11.5666 48.7834 18.7708 48.7834 28.3374C48.7834 38.3708 42.5709 46.4208 33.675 46.4208C30.8459 46.4208 28.075 44.9041 27.0834 43.1249L25.1292 50.0374C24.4584 52.5458 22.6209 55.8999 21.3667 57.9124V57.8249Z" fill="#CCCCCC"/>
</svg>
