<svg width="47" height="47" viewBox="0 0 47 47" fill="none" xmlns="http://www.w3.org/2000/svg">
<path d="M7.02496 46.3334C10.5366 46.3334 13.3833 43.4867 13.3833 39.9751C13.3833 36.4635 10.5366 33.6168 7.02496 33.6168C3.51335 33.6168 0.666626 36.4635 0.666626 39.9751C0.666626 43.4867 3.51335 46.3334 7.02496 46.3334Z" fill="#CCCCCC"/>
<path d="M0.666626 0.949951V9.20412C21.1708 9.20412 37.7958 25.8291 37.7958 46.3333H46.05C46.05 21.2791 25.7208 0.949951 0.666626 0.949951ZM0.666626 17.4583V25.7125C12.0416 25.7125 21.2875 34.9583 21.2875 46.3333H29.5416C29.5416 30.3791 16.6208 17.4583 0.666626 17.4583Z" fill="#CCCCCC"/>
</svg>
